<svg width="62" height="68" viewBox="0 0 62 68" fill="none" xmlns="http://www.w3.org/2000/svg">
<path d="M61.0968 67.667H23.3149V32.3496H50.0553V45.5405H61.0968V67.667Z" fill="#FF5A40"/>
<path d="M49.9837 0.422607H24.1709V31.7879H49.9837V0.422607Z" fill="#FFC700"/>
<path d="M24.5913 0.0471191H0.5V32.2849H24.5913V0.0471191Z" fill="#00BEFF"/>
<path d="M23.7678 31.6462H0.564453V52.3783H23.7678V31.6462Z" fill="#E6E6E6"/>
<path d="M50.4586 45.1254L50.4487 31.3554V0H23.7083V24.1249C19.7656 24.1746 16.5724 27.3934 16.5328 31.3554H1.48938V22.3377L8.23692 15.5571H0.5V23.332V68H61.5V45.1254H50.4586ZM40.9754 12.5173L49.4568 12.6813V15.2116H45.3682L29.135 26.4687C28.9718 26.2923 28.8011 26.1233 28.6206 25.9642L40.9754 12.5173ZM27.8612 25.3701C27.6658 25.2384 27.4655 25.1141 27.2577 25.0023L35.7688 8.77403L39.6026 7.7127L40.1418 9.73595L49.4568 9.77323V11.7169L40.5648 11.5454L27.8637 25.3701H27.8612ZM45.6749 16.2059H49.4543V20.5606L30.2134 27.9924C30.0749 27.7339 29.9216 27.4853 29.7559 27.2442L45.6749 16.2059ZM49.4543 8.77901L40.9012 8.74421L40.3001 6.48732L35.0935 7.92894L26.3549 24.5872C26.0853 24.4853 25.8107 24.4008 25.5263 24.3312L29.5481 7.50391L49.4568 1.97851V8.77901H49.4543ZM24.7001 0.994225H49.2837L29.0039 6.62402L28.722 6.70107L24.6977 23.5507V0.994225H24.7001ZM31.0717 31.251C31.0519 30.4258 30.8986 29.6354 30.6265 28.8996L49.4593 21.6244V31.3554L31.0717 31.251ZM1.48938 51.7047V32.3496H16.5897C17.0374 35.9114 20.0476 38.6828 23.7009 38.7325V51.7047H1.48938ZM29.9834 67.0033H24.7076V62.6884H28.4524V64.5326H29.9834V67.0033ZM40.4189 67.0033H30.9728V63.5384H29.4417V61.6941H24.7076V52.6989H35.9246V59.385H40.4189V67.0033ZM49.9045 67.0033H41.4082V58.3908H36.914V51.7047H24.7076V43.0847H42.1577V52.2018H49.9045V67.0033ZM60.5106 67.0033H50.8939V51.2076H43.1471V42.0905H24.7076V38.6778C27.9898 38.2652 30.5968 35.6479 31.0124 32.3496H49.4692V46.1196H60.5106V67.0058V67.0033Z" fill="#2500CB"/>
<path d="M12.8278 55.1943H12.8253C12.0289 55.1943 11.3833 55.8431 11.3833 56.6434V56.6459C11.3833 57.4462 12.0289 58.095 12.8253 58.095H12.8278C13.6242 58.095 14.2698 57.4462 14.2698 56.6459V56.6434C14.2698 55.8431 13.6242 55.1943 12.8278 55.1943Z" fill="white"/>
<path d="M6.16422 55.1943H6.16174C5.36534 55.1943 4.71973 55.8431 4.71973 56.6434V56.6459C4.71973 57.4462 5.36534 58.095 6.16174 58.095H6.16422C6.96062 58.095 7.60623 57.4462 7.60623 56.6459V56.6434C7.60623 55.8431 6.96062 55.1943 6.16422 55.1943Z" fill="white"/>
<path d="M19.4909 55.1943H19.4884C18.692 55.1943 18.0464 55.8431 18.0464 56.6434V56.6459C18.0464 57.4462 18.692 58.095 19.4884 58.095H19.4909C20.2873 58.095 20.9329 57.4462 20.9329 56.6459V56.6434C20.9329 55.8431 20.2873 55.1943 19.4909 55.1943Z" fill="white"/>
<path d="M12.8278 61.6941H12.8253C12.0289 61.6941 11.3833 62.3429 11.3833 63.1432V63.1457C11.3833 63.946 12.0289 64.5947 12.8253 64.5947H12.8278C13.6242 64.5947 14.2698 63.946 14.2698 63.1457V63.1432C14.2698 62.3429 13.6242 61.6941 12.8278 61.6941Z" fill="white"/>
<path d="M6.16422 61.6941H6.16174C5.36534 61.6941 4.71973 62.3429 4.71973 63.1432V63.1457C4.71973 63.946 5.36534 64.5947 6.16174 64.5947H6.16422C6.96062 64.5947 7.60623 63.946 7.60623 63.1457V63.1432C7.60623 62.3429 6.96062 61.6941 6.16422 61.6941Z" fill="white"/>
<path d="M19.4909 61.6941H19.4884C18.692 61.6941 18.0464 62.3429 18.0464 63.1432V63.1457C18.0464 63.946 18.692 64.5947 19.4884 64.5947H19.4909C20.2873 64.5947 20.9329 63.946 20.9329 63.1457V63.1432C20.9329 62.3429 20.2873 61.6941 19.4909 61.6941Z" fill="white"/>
<path d="M9.87951 35.2004H5.30859V39.7938H9.87951V35.2004Z" fill="#2500CB"/>
<path d="M14.4503 39.7939H9.87939V44.3873H14.4503V39.7939Z" fill="#2500CB"/>
<path d="M19.0211 44.3872H14.4502V48.9805H19.0211V44.3872Z" fill="#2500CB"/>
<path d="M0.5 0.00732422V7.78216L8.23692 0.00732422H0.5Z" fill="#2500CB"/>
<path d="M0.5 7.78223V15.5571L8.23692 7.78223H0.5Z" fill="#2500CB"/>
<path d="M15.9713 7.77484L23.7082 0H15.9713V0.00497112H8.23682V7.77981L15.9713 0.00994225V7.77484Z" fill="#2500CB"/>
<path d="M15.9713 15.5497L23.7082 7.7749H15.9713V7.77987H8.23682V15.5547L15.9713 7.78236V15.5497Z" fill="#2500CB"/>
<path d="M10.6882 27.2493C8.561 27.2493 6.82959 25.5094 6.82959 23.3719C6.82959 21.2343 8.561 19.4944 10.6882 19.4944C12.8153 19.4944 14.5467 21.2343 14.5467 23.3719C14.5467 25.5094 12.8153 27.2493 10.6882 27.2493ZM10.6882 20.4886C9.10515 20.4886 7.81897 21.7811 7.81897 23.3719C7.81897 24.9626 9.10515 26.2551 10.6882 26.2551C12.2712 26.2551 13.5573 24.9626 13.5573 23.3719C13.5573 21.7811 12.2712 20.4886 10.6882 20.4886Z" fill="#2500CB"/>
<path d="M40.7823 44.7549C42.6402 44.7549 44.1462 43.2414 44.1462 41.3745C44.1462 39.5076 42.6402 37.9941 40.7823 37.9941C38.9245 37.9941 37.4185 39.5076 37.4185 41.3745C37.4185 43.2414 38.9245 44.7549 40.7823 44.7549Z" fill="#FF5A40"/>
<path d="M40.7824 45.252C38.6552 45.252 36.9238 43.5121 36.9238 41.3745C36.9238 39.237 38.6552 37.4971 40.7824 37.4971C42.9096 37.4971 44.641 39.237 44.641 41.3745C44.641 43.5121 42.9096 45.252 40.7824 45.252ZM40.7824 38.4913C39.1994 38.4913 37.9132 39.7838 37.9132 41.3745C37.9132 42.9653 39.1994 44.2578 40.7824 44.2578C42.3654 44.2578 43.6516 42.9653 43.6516 41.3745C43.6516 39.7838 42.3654 38.4913 40.7824 38.4913Z" fill="#2500CB"/>
<path d="M39.338 60.9883C41.1958 60.9883 42.7019 59.4748 42.7019 57.6079C42.7019 55.741 41.1958 54.2275 39.338 54.2275C37.4802 54.2275 35.9741 55.741 35.9741 57.6079C35.9741 59.4748 37.4802 60.9883 39.338 60.9883Z" fill="#FF5A40"/>
<path d="M39.3381 61.4854C37.2109 61.4854 35.4795 59.7455 35.4795 57.6079C35.4795 55.4704 37.2109 53.7305 39.3381 53.7305C41.4652 53.7305 43.1966 55.4704 43.1966 57.6079C43.1966 59.7455 41.4652 61.4854 39.3381 61.4854ZM39.3381 54.7247C37.7551 54.7247 36.4689 56.0172 36.4689 57.6079C36.4689 59.1987 37.7551 60.4912 39.3381 60.4912C40.9211 60.4912 42.2073 59.1987 42.2073 57.6079C42.2073 56.0172 40.9211 54.7247 39.3381 54.7247Z" fill="#2500CB"/>
</svg>
